<svg width="309" height="264" viewBox="0 0 309 264" fill="none" xmlns="http://www.w3.org/2000/svg">
<path d="M309 143.725C309 210 239.828 263.725 154.5 263.725C69.172 263.725 0 210 0 143.725C0 77.4513 69.172 23.7255 154.5 23.7255C239.828 23.7255 309 77.4513 309 143.725Z" fill="#FFAE00"/>
<ellipse cx="159" cy="45.7255" rx="15" ry="12" fill="#3CAE94"/>
<path d="M168 43.207C168 41.5767 170.031 34.8771 177.586 26.7356C184.355 19.4416 206.501 11.6388 230.831 4.34147C234.548 3.22667 235.119 5.05727 235.265 6.56683C235.937 13.5131 231.886 20.7654 225.899 25.9604C216.343 34.2535 204.683 35.8251 195.532 38.1276C188.903 39.855 182.73 41.5663 177.924 43.1569C175.474 44.0335 173.001 45.0513 170.452 46.1" stroke="#3CAE94" stroke-width="8" stroke-linecap="round"/>
<path d="M173.138 44.173C173.996 42.7535 180.304 36.5123 191.457 31.2197C194.232 29.903 197.171 28.8087 196.916 28.9653C193.632 30.9797 187.588 32.9021 185.06 33.3135C178.749 34.3407 195.513 27.0727 197.402 25.0237C202.078 19.9503 180.7 33.1961 178.298 34.4644C176.243 35.5498 179.007 29.7325 181.335 27.12C182.451 25.867 184.079 25.0238 184.631 25.2383C190.206 27.4057 178.676 33.932 176.014 37.8366C172.594 42.8528 194.023 33.3614 201.967 30.0538C210.446 26.5238 213.453 22.5214 214.99 21.6807C216.708 20.7404 211.226 26.2425 208.944 28.8139C208.133 29.7289 213.961 26.9161 214.837 25.6144C216.558 23.0575 206.371 30.2922 204.125 31.5302C197.197 35.351 213.89 21.8321 219.207 19.8251C218.589 21.4459 216.002 23.7926 213.052 25.9292C211.639 27.0381 210.394 28.197 208.542 30.2715" stroke="#3CAE94" stroke-width="8" stroke-linecap="round"/>
<path d="M214.063 24.2189C213.908 24.2189 214.725 22.7545 214.803 20.7889C211.423 20.7941 206.653 22.1161 202.682 23.7628C200.842 24.6093 199.358 25.4776 201.592 25.0943" stroke="#3CAE94" stroke-width="8" stroke-linecap="round"/>
<path d="M224.503 14.8104C224.348 14.8104 218.839 14.8104 209.858 15.3616C206.306 15.9128 204.796 17.0153 202.061 18.3196C199.326 19.6239 195.412 21.0966 190.91 22.6843" stroke="#3CAE94" stroke-width="8" stroke-linecap="round"/>
<path d="M209.44 16.3198L211.025 16.0078" stroke="#3CAE94" stroke-width="8" stroke-linecap="round"/>
<path d="M209.721 17.3009C211.722 15.9272 218.633 12.0006 225.505 9.90515C226.28 14.1296 224.234 18.0795 221.846 20.9347C220.437 22.5131 218.628 24.3544 216.272 26.7899" stroke="#3CAE94" stroke-width="8" stroke-linecap="round"/>
<path d="M224.823 16.3499C224.745 16.3499 224.668 16.3499 223.648 16.6388C222.627 16.9277 220.666 17.5055 218.62 18.3702C216.574 19.2348 214.503 20.3688 212.368 21.5372" stroke="#3CAE94" stroke-width="8" stroke-linecap="round"/>
<path d="M229.68 7.72626C229.68 7.82256 229.68 9.31997 229.399 12.1404C229.118 13.513 228.556 14.7665 227.924 16.0233C227.292 17.2801 226.606 18.5021 225.9 19.7611" stroke="#3CAE94" stroke-width="8" stroke-linecap="round"/>
<path d="M203.533 19.8701C203.003 20.4246 199.775 22.9219 197.532 26.9314C196.804 28.2323 197.097 30.0409 197.524 31.0585C198.154 32.5583 200.007 33.2639 200.531 34.1739C202.594 37.759 212.895 27.4542 217.142 26.2059C219.415 25.5382 221.22 24.2258 222.477 23.8301C223.788 23.4176 219.37 28.3767 215.675 32.1591C214.659 33.1992 215.047 32.3079 215.585 31.5337C216.607 30.0607 218.433 28.5003 219.617 27.2459C220.123 26.7107 214.983 28.6609 211.95 29.8581C204.62 32.752 220.889 20.0896 226.581 12.303C227.776 10.6689 228.384 10.0127 228.107 10.0206C220.282 10.2449 210.906 16.7132 205.366 19.0843C203.394 19.9283 201.186 21.6633 202.626 21.4528C204.065 21.2423 209.439 19.2158 211.685 18.384C212.86 17.9486 207.744 20.6989 203.077 23.1817C202.472 23.3791 205.448 21.419 205.046 21.7438C204.644 22.0686 200.774 24.7376 196.439 27.827" stroke="#3CAE94" stroke-width="8" stroke-linecap="round"/>
<ellipse cx="115" cy="143.725" rx="8" ry="6" fill="black"/>
<ellipse cx="192" cy="143.725" rx="8" ry="6" fill="black"/>
<path d="M147 160.725C147 160.798 147.565 161.885 148.976 163.701C150.933 164.913 153.878 165.389 157.008 165.058C158.338 164.711 159.145 164 161.969 161.522" stroke="#FF0000" stroke-width="8" stroke-linecap="round"/>
<ellipse cx="78.5" cy="165.225" rx="17.5" ry="15.5" fill="#FB7B02" fill-opacity="0.64"/>
<ellipse cx="227.5" cy="159.225" rx="17.5" ry="15.5" fill="#FB7B02" fill-opacity="0.64"/>
<circle cx="96.5" cy="229.225" r="2.5" fill="#D9D9D9"/>
<circle cx="107.5" cy="240.225" r="2.5" fill="#D9D9D9"/>
<circle cx="88.5" cy="240.225" r="2.5" fill="#D9D9D9"/>
<circle cx="223.5" cy="75.2255" r="2.5" fill="#D9D9D9"/>
<circle cx="232.5" cy="65.2255" r="2.5" fill="#D9D9D9"/>
<circle cx="242.5" cy="75.2255" r="2.5" fill="#D9D9D9"/>
</svg>
